<svg aria-roledescription="er" role="graphics-document document" viewBox="0 0 370.15234375 731.873291015625" style="max-width: 100%; background: rgb(0, 21, 71);" xmlns="http://www.w3.org/2000/svg" width="100%" id="graph-div" height="100%" xmlns:xlink="http://www.w3.org/1999/xlink"><style>@import url("https://cdnjs.cloudflare.com/ajax/libs/font-awesome/6.2.0/css/all.min.css");'</style><style>#graph-div{font-family:"trebuchet ms",verdana,arial,sans-serif;font-size:16px;fill:#ccc;}#graph-div .error-icon{fill:#a44141;}#graph-div .error-text{fill:#ddd;stroke:#ddd;}#graph-div .edge-thickness-normal{stroke-width:2px;}#graph-div .edge-thickness-thick{stroke-width:3.5px;}#graph-div .edge-pattern-solid{stroke-dasharray:0;}#graph-div .edge-pattern-dashed{stroke-dasharray:3;}#graph-div .edge-pattern-dotted{stroke-dasharray:2;}#graph-div .marker{fill:lightgrey;stroke:lightgrey;}#graph-div .marker.cross{stroke:lightgrey;}#graph-div svg{font-family:"trebuchet ms",verdana,arial,sans-serif;font-size:16px;}#graph-div .entityBox{fill:#1f2020;stroke:#81B1DB;}#graph-div .attributeBoxOdd{fill:hsl(0, 0%, 32%);stroke:#81B1DB;}#graph-div .attributeBoxEven{fill:hsl(0, 0%, 22%);stroke:#81B1DB;}#graph-div .relationshipLabelBox{fill:hsl(20, 1.5873015873%, 12.3529411765%);opacity:0.7;background-color:hsl(20, 1.5873015873%, 12.3529411765%);}#graph-div .relationshipLabelBox rect{opacity:0.5;}#graph-div .relationshipLine{stroke:lightgrey;}#graph-div .entityTitleText{text-anchor:middle;font-size:18px;fill:#ccc;}#graph-div #MD_PARENT_START{fill:#f5f5f5!important;stroke:lightgrey!important;stroke-width:1;}#graph-div #MD_PARENT_END{fill:#f5f5f5!important;stroke:lightgrey!important;stroke-width:1;}#graph-div :root{--mermaid-font-family:"trebuchet ms",verdana,arial,sans-serif;}</style><g></g><defs><marker orient="auto" markerHeight="240" markerWidth="190" refY="7" refX="0" id="MD_PARENT_START"><path d="M 18,7 L9,13 L1,7 L9,1 Z"></path></marker></defs><defs><marker orient="auto" markerHeight="28" markerWidth="20" refY="7" refX="19" id="MD_PARENT_END"><path d="M 18,7 L9,13 L1,7 L9,1 Z"></path></marker></defs><defs><marker orient="auto" markerHeight="18" markerWidth="18" refY="9" refX="0" id="ONLY_ONE_START"><path d="M9,0 L9,18 M15,0 L15,18" fill="none" stroke="gray"></path></marker></defs><defs><marker orient="auto" markerHeight="18" markerWidth="18" refY="9" refX="18" id="ONLY_ONE_END"><path d="M3,0 L3,18 M9,0 L9,18" fill="none" stroke="gray"></path></marker></defs><defs><marker orient="auto" markerHeight="18" markerWidth="30" refY="9" refX="0" id="ZERO_OR_ONE_START"><circle r="6" cy="9" cx="21" fill="white" stroke="gray"></circle><path d="M9,0 L9,18" fill="none" stroke="gray"></path></marker></defs><defs><marker orient="auto" markerHeight="18" markerWidth="30" refY="9" refX="30" id="ZERO_OR_ONE_END"><circle r="6" cy="9" cx="9" fill="white" stroke="gray"></circle><path d="M21,0 L21,18" fill="none" stroke="gray"></path></marker></defs><defs><marker orient="auto" markerHeight="36" markerWidth="45" refY="18" refX="18" id="ONE_OR_MORE_START"><path d="M0,18 Q 18,0 36,18 Q 18,36 0,18 M42,9 L42,27" fill="none" stroke="gray"></path></marker></defs><defs><marker orient="auto" markerHeight="36" markerWidth="45" refY="18" refX="27" id="ONE_OR_MORE_END"><path d="M3,9 L3,27 M9,18 Q27,0 45,18 Q27,36 9,18" fill="none" stroke="gray"></path></marker></defs><defs><marker orient="auto" markerHeight="36" markerWidth="57" refY="18" refX="18" id="ZERO_OR_MORE_START"><circle r="6" cy="18" cx="48" fill="white" stroke="gray"></circle><path d="M0,18 Q18,0 36,18 Q18,36 0,18" fill="none" stroke="gray"></path></marker></defs><defs><marker orient="auto" markerHeight="36" markerWidth="57" refY="18" refX="39" id="ZERO_OR_MORE_END"><circle r="6" cy="18" cx="9" fill="white" stroke="gray"></circle><path d="M21,18 Q39,0 57,18 Q39,36 21,18" fill="none" stroke="gray"></path></marker></defs><path style="stroke: gray; fill: none;" marker-start="url(#ONE_OR_MORE_START)" marker-end="url(#ONLY_ONE_END)" d="M140.15625,214.32061725313264L132.6953125,225.83493769710924C125.234375,237.3492581410858,110.3125,260.37789902903904,102.8515625,280.22555280634896C95.390625,300.0732065836589,95.390625,316.7398732503255,95.390625,325.0732065836589L95.390625,333.4065399169922" class="er relationshipLine"></path><path style="stroke: gray; fill: none;" marker-start="url(#ONLY_ONE_START)" marker-end="url(#ONE_OR_MORE_END)" d="M95.390625,462.05311584472656L95.390625,470.3864491780599C95.390625,478.71978251139325,95.390625,495.3864491780599,95.390625,512.0531158447266C95.390625,528.7197825113932,95.390625,545.3864491780599,95.390625,553.7197825113932L95.390625,562.0531158447266" class="er relationshipLine"></path><path style="stroke: gray; fill: none;" marker-start="url(#ONE_OR_MORE_START)" marker-end="url(#ONLY_ONE_END)" d="M253.703125,214.32061725313264L261.1640625,225.83493769710924C268.625,237.3492581410858,283.546875,260.37789902903904,291.0078125,281.96333687413863C298.46875,303.5487747192383,298.46875,323.6910095214844,298.46875,333.7621269226074L298.46875,343.83324432373047" class="er relationshipLine"></path><g transform="translate(140.15625,20 )" id="entity-User-818c511a-4a32-5484-ba70-875d765a9175"><rect height="213.4065465927124" width="113.546875" y="0" x="0" class="er entityBox"></rect><text transform="translate(56.7734375,11.75)" style="dominant-baseline: middle; text-anchor: middle; font-size: 12px;" y="0" x="0" id="text-entity-User-818c511a-4a32-5484-ba70-875d765a9175" class="er entityLabel">User</text><rect height="21" width="34.9453125" y="23.5" x="0" class="er attributeBoxOdd"></rect><text transform="translate(5,34)" style="dominant-baseline: middle; font-size: 10.2px;" y="0" x="0" id="text-entity-User-818c511a-4a32-5484-ba70-875d765a9175-attr-1-type" class="er entityLabel">int</text><rect height="21" width="78.6015625" y="23.5" x="34.9453125" class="er attributeBoxOdd"></rect><text transform="translate(39.9453125,34)" style="dominant-baseline: middle; font-size: 10.2px;" y="0" x="0" id="text-entity-User-818c511a-4a32-5484-ba70-875d765a9175-attr-1-name" class="er entityLabel">ID</text><rect height="21.14658260345459" width="34.9453125" y="44.5" x="0" class="er attributeBoxEven"></rect><text transform="translate(5,55.073291301727295)" style="dominant-baseline: middle; font-size: 10.2px;" y="0" x="0" id="text-entity-User-818c511a-4a32-5484-ba70-875d765a9175-attr-2-type" class="er entityLabel">string</text><rect height="21.14658260345459" width="78.6015625" y="44.5" x="34.9453125" class="er attributeBoxEven"></rect><text transform="translate(39.9453125,55.073291301727295)" style="dominant-baseline: middle; font-size: 10.2px;" y="0" x="0" id="text-entity-User-818c511a-4a32-5484-ba70-875d765a9175-attr-2-name" class="er entityLabel">Email</text><rect height="21.14658260345459" width="34.9453125" y="65.64658260345459" x="0" class="er attributeBoxOdd"></rect><text transform="translate(5,76.21987390518188)" style="dominant-baseline: middle; font-size: 10.2px;" y="0" x="0" id="text-entity-User-818c511a-4a32-5484-ba70-875d765a9175-attr-3-type" class="er entityLabel">string</text><rect height="21.14658260345459" width="78.6015625" y="65.64658260345459" x="34.9453125" class="er attributeBoxOdd"></rect><text transform="translate(39.9453125,76.21987390518188)" style="dominant-baseline: middle; font-size: 10.2px;" y="0" x="0" id="text-entity-User-818c511a-4a32-5484-ba70-875d765a9175-attr-3-name" class="er entityLabel">PasswordHash</text><rect height="21.14658260345459" width="34.9453125" y="86.79316520690918" x="0" class="er attributeBoxEven"></rect><text transform="translate(5,97.36645650863647)" style="dominant-baseline: middle; font-size: 10.2px;" y="0" x="0" id="text-entity-User-818c511a-4a32-5484-ba70-875d765a9175-attr-4-type" class="er entityLabel">string</text><rect height="21.14658260345459" width="78.6015625" y="86.79316520690918" x="34.9453125" class="er attributeBoxEven"></rect><text transform="translate(39.9453125,97.36645650863647)" style="dominant-baseline: middle; font-size: 10.2px;" y="0" x="0" id="text-entity-User-818c511a-4a32-5484-ba70-875d765a9175-attr-4-name" class="er entityLabel">Name</text><rect height="21.14658260345459" width="34.9453125" y="107.93974781036377" x="0" class="er attributeBoxOdd"></rect><text transform="translate(5,118.51303911209106)" style="dominant-baseline: middle; font-size: 10.2px;" y="0" x="0" id="text-entity-User-818c511a-4a32-5484-ba70-875d765a9175-attr-5-type" class="er entityLabel">string</text><rect height="21.14658260345459" width="78.6015625" y="107.93974781036377" x="34.9453125" class="er attributeBoxOdd"></rect><text transform="translate(39.9453125,118.51303911209106)" style="dominant-baseline: middle; font-size: 10.2px;" y="0" x="0" id="text-entity-User-818c511a-4a32-5484-ba70-875d765a9175-attr-5-name" class="er entityLabel">Surname</text><rect height="21.14658260345459" width="34.9453125" y="129.08633041381836" x="0" class="er attributeBoxEven"></rect><text transform="translate(5,139.65962171554565)" style="dominant-baseline: middle; font-size: 10.2px;" y="0" x="0" id="text-entity-User-818c511a-4a32-5484-ba70-875d765a9175-attr-6-type" class="er entityLabel">string</text><rect height="21.14658260345459" width="78.6015625" y="129.08633041381836" x="34.9453125" class="er attributeBoxEven"></rect><text transform="translate(39.9453125,139.65962171554565)" style="dominant-baseline: middle; font-size: 10.2px;" y="0" x="0" id="text-entity-User-818c511a-4a32-5484-ba70-875d765a9175-attr-6-name" class="er entityLabel">Middlename</text><rect height="21.14658260345459" width="34.9453125" y="150.23291301727295" x="0" class="er attributeBoxOdd"></rect><text transform="translate(5,160.80620431900024)" style="dominant-baseline: middle; font-size: 10.2px;" y="0" x="0" id="text-entity-User-818c511a-4a32-5484-ba70-875d765a9175-attr-7-type" class="er entityLabel">string</text><rect height="21.14658260345459" width="78.6015625" y="150.23291301727295" x="34.9453125" class="er attributeBoxOdd"></rect><text transform="translate(39.9453125,160.80620431900024)" style="dominant-baseline: middle; font-size: 10.2px;" y="0" x="0" id="text-entity-User-818c511a-4a32-5484-ba70-875d765a9175-attr-7-name" class="er entityLabel">Passport</text><rect height="21" width="34.9453125" y="171.37949562072754" x="0" class="er attributeBoxEven"></rect><text transform="translate(5,181.87949562072754)" style="dominant-baseline: middle; font-size: 10.2px;" y="0" x="0" id="text-entity-User-818c511a-4a32-5484-ba70-875d765a9175-attr-8-type" class="er entityLabel">time</text><rect height="21" width="78.6015625" y="171.37949562072754" x="34.9453125" class="er attributeBoxEven"></rect><text transform="translate(39.9453125,181.87949562072754)" style="dominant-baseline: middle; font-size: 10.2px;" y="0" x="0" id="text-entity-User-818c511a-4a32-5484-ba70-875d765a9175-attr-8-name" class="er entityLabel">CreatedAt</text><rect height="21.027050971984863" width="34.9453125" y="192.37949562072754" x="0" class="er attributeBoxOdd"></rect><text transform="translate(5,202.89302110671997)" style="dominant-baseline: middle; font-size: 10.2px;" y="0" x="0" id="text-entity-User-818c511a-4a32-5484-ba70-875d765a9175-attr-9-type" class="er entityLabel">time</text><rect height="21.027050971984863" width="78.6015625" y="192.37949562072754" x="34.9453125" class="er attributeBoxOdd"></rect><text transform="translate(39.9453125,202.89302110671997)" style="dominant-baseline: middle; font-size: 10.2px;" y="0" x="0" id="text-entity-User-818c511a-4a32-5484-ba70-875d765a9175-attr-9-name" class="er entityLabel">UpdatedAt</text></g><g transform="translate(43.99609375,333.4065399169922 )" id="entity-HotelOrder-d19e957f-e391-5b59-afdf-8df0bc224776"><rect height="128.6465826034546" width="102.7890625" y="0" x="0" class="er entityBox"></rect><text transform="translate(51.39453125,11.75)" style="dominant-baseline: middle; text-anchor: middle; font-size: 12px;" y="0" x="0" id="text-entity-HotelOrder-d19e957f-e391-5b59-afdf-8df0bc224776" class="er entityLabel">HotelOrder</text><rect height="21" width="34.953125" y="23.5" x="0" class="er attributeBoxOdd"></rect><text transform="translate(5,34)" style="dominant-baseline: middle; font-size: 10.2px;" y="0" x="0" id="text-entity-HotelOrder-d19e957f-e391-5b59-afdf-8df0bc224776-attr-1-type" class="er entityLabel">int</text><rect height="21" width="67.8359375" y="23.5" x="34.953125" class="er attributeBoxOdd"></rect><text transform="translate(39.953125,34)" style="dominant-baseline: middle; font-size: 10.2px;" y="0" x="0" id="text-entity-HotelOrder-d19e957f-e391-5b59-afdf-8df0bc224776-attr-1-name" class="er entityLabel">UserID</text><rect height="21" width="34.953125" y="44.5" x="0" class="er attributeBoxEven"></rect><text transform="translate(5,55)" style="dominant-baseline: middle; font-size: 10.2px;" y="0" x="0" id="text-entity-HotelOrder-d19e957f-e391-5b59-afdf-8df0bc224776-attr-2-type" class="er entityLabel">int</text><rect height="21" width="67.8359375" y="44.5" x="34.953125" class="er attributeBoxEven"></rect><text transform="translate(39.953125,55)" style="dominant-baseline: middle; font-size: 10.2px;" y="0" x="0" id="text-entity-HotelOrder-d19e957f-e391-5b59-afdf-8df0bc224776-attr-2-name" class="er entityLabel">HotelID</text><rect height="21.14658260345459" width="34.953125" y="65.5" x="0" class="er attributeBoxOdd"></rect><text transform="translate(5,76.0732913017273)" style="dominant-baseline: middle; font-size: 10.2px;" y="0" x="0" id="text-entity-HotelOrder-d19e957f-e391-5b59-afdf-8df0bc224776-attr-3-type" class="er entityLabel">byte[]</text><rect height="21.14658260345459" width="67.8359375" y="65.5" x="34.953125" class="er attributeBoxOdd"></rect><text transform="translate(39.953125,76.0732913017273)" style="dominant-baseline: middle; font-size: 10.2px;" y="0" x="0" id="text-entity-HotelOrder-d19e957f-e391-5b59-afdf-8df0bc224776-attr-3-name" class="er entityLabel">RawData</text><rect height="21" width="34.953125" y="86.64658260345459" x="0" class="er attributeBoxEven"></rect><text transform="translate(5,97.14658260345459)" style="dominant-baseline: middle; font-size: 10.2px;" y="0" x="0" id="text-entity-HotelOrder-d19e957f-e391-5b59-afdf-8df0bc224776-attr-4-type" class="er entityLabel">time</text><rect height="21" width="67.8359375" y="86.64658260345459" x="34.953125" class="er attributeBoxEven"></rect><text transform="translate(39.953125,97.14658260345459)" style="dominant-baseline: middle; font-size: 10.2px;" y="0" x="0" id="text-entity-HotelOrder-d19e957f-e391-5b59-afdf-8df0bc224776-attr-4-name" class="er entityLabel">CreatedAt</text><rect height="21" width="34.953125" y="107.64658260345459" x="0" class="er attributeBoxOdd"></rect><text transform="translate(5,118.14658260345459)" style="dominant-baseline: middle; font-size: 10.2px;" y="0" x="0" id="text-entity-HotelOrder-d19e957f-e391-5b59-afdf-8df0bc224776-attr-5-type" class="er entityLabel">time</text><rect height="21" width="67.8359375" y="107.64658260345459" x="34.953125" class="er attributeBoxOdd"></rect><text transform="translate(39.953125,118.14658260345459)" style="dominant-baseline: middle; font-size: 10.2px;" y="0" x="0" id="text-entity-HotelOrder-d19e957f-e391-5b59-afdf-8df0bc224776-attr-5-name" class="er entityLabel">CreatedDate</text></g><g transform="translate(20,562.0531158447266 )" id="entity-Hotel-a607a7aa-71b5-5610-9d8a-21078a3670c3"><rect height="149.82021617889404" width="150.78125" y="0" x="0" class="er entityBox"></rect><text transform="translate(75.390625,11.75)" style="dominant-baseline: middle; text-anchor: middle; font-size: 12px;" y="0" x="0" id="text-entity-Hotel-a607a7aa-71b5-5610-9d8a-21078a3670c3" class="er entityLabel">Hotel</text><rect height="21" width="34.9453125" y="23.5" x="0" class="er attributeBoxOdd"></rect><text transform="translate(5,34)" style="dominant-baseline: middle; font-size: 10.2px;" y="0" x="0" id="text-entity-Hotel-a607a7aa-71b5-5610-9d8a-21078a3670c3-attr-1-type" class="er entityLabel">int</text><rect height="21" width="115.8359375" y="23.5" x="34.9453125" class="er attributeBoxOdd"></rect><text transform="translate(39.9453125,34)" style="dominant-baseline: middle; font-size: 10.2px;" y="0" x="0" id="text-entity-Hotel-a607a7aa-71b5-5610-9d8a-21078a3670c3-attr-1-name" class="er entityLabel">ID</text><rect height="21.14658260345459" width="34.9453125" y="44.5" x="0" class="er attributeBoxEven"></rect><text transform="translate(5,55.073291301727295)" style="dominant-baseline: middle; font-size: 10.2px;" y="0" x="0" id="text-entity-Hotel-a607a7aa-71b5-5610-9d8a-21078a3670c3-attr-2-type" class="er entityLabel">string</text><rect height="21.14658260345459" width="115.8359375" y="44.5" x="34.9453125" class="er attributeBoxEven"></rect><text transform="translate(39.9453125,55.073291301727295)" style="dominant-baseline: middle; font-size: 10.2px;" y="0" x="0" id="text-entity-Hotel-a607a7aa-71b5-5610-9d8a-21078a3670c3-attr-2-name" class="er entityLabel">Title</text><rect height="21" width="34.9453125" y="65.64658260345459" x="0" class="er attributeBoxOdd"></rect><text transform="translate(5,76.14658260345459)" style="dominant-baseline: middle; font-size: 10.2px;" y="0" x="0" id="text-entity-Hotel-a607a7aa-71b5-5610-9d8a-21078a3670c3-attr-3-type" class="er entityLabel">int</text><rect height="21" width="115.8359375" y="65.64658260345459" x="34.9453125" class="er attributeBoxOdd"></rect><text transform="translate(39.9453125,76.14658260345459)" style="dominant-baseline: middle; font-size: 10.2px;" y="0" x="0" id="text-entity-Hotel-a607a7aa-71b5-5610-9d8a-21078a3670c3-attr-3-name" class="er entityLabel">DefaultAvailableRooms</text><rect height="21.14658260345459" width="34.9453125" y="86.64658260345459" x="0" class="er attributeBoxEven"></rect><text transform="translate(5,97.21987390518188)" style="dominant-baseline: middle; font-size: 10.2px;" y="0" x="0" id="text-entity-Hotel-a607a7aa-71b5-5610-9d8a-21078a3670c3-attr-4-type" class="er entityLabel">string</text><rect height="21.14658260345459" width="115.8359375" y="86.64658260345459" x="34.9453125" class="er attributeBoxEven"></rect><text transform="translate(39.9453125,97.21987390518188)" style="dominant-baseline: middle; font-size: 10.2px;" y="0" x="0" id="text-entity-Hotel-a607a7aa-71b5-5610-9d8a-21078a3670c3-attr-4-name" class="er entityLabel">Description</text><rect height="21" width="34.9453125" y="107.79316520690918" x="0" class="er attributeBoxOdd"></rect><text transform="translate(5,118.29316520690918)" style="dominant-baseline: middle; font-size: 10.2px;" y="0" x="0" id="text-entity-Hotel-a607a7aa-71b5-5610-9d8a-21078a3670c3-attr-5-type" class="er entityLabel">time</text><rect height="21" width="115.8359375" y="107.79316520690918" x="34.9453125" class="er attributeBoxOdd"></rect><text transform="translate(39.9453125,118.29316520690918)" style="dominant-baseline: middle; font-size: 10.2px;" y="0" x="0" id="text-entity-Hotel-a607a7aa-71b5-5610-9d8a-21078a3670c3-attr-5-name" class="er entityLabel">CreatedAt</text><rect height="21.027050971984863" width="34.9453125" y="128.79316520690918" x="0" class="er attributeBoxEven"></rect><text transform="translate(5,139.3066906929016)" style="dominant-baseline: middle; font-size: 10.2px;" y="0" x="0" id="text-entity-Hotel-a607a7aa-71b5-5610-9d8a-21078a3670c3-attr-6-type" class="er entityLabel">time</text><rect height="21.027050971984863" width="115.8359375" y="128.79316520690918" x="34.9453125" class="er attributeBoxEven"></rect><text transform="translate(39.9453125,139.3066906929016)" style="dominant-baseline: middle; font-size: 10.2px;" y="0" x="0" id="text-entity-Hotel-a607a7aa-71b5-5610-9d8a-21078a3670c3-attr-6-name" class="er entityLabel">UpdatedAt</text></g><g transform="translate(246.78515625,343.83324432373047 )" id="entity-UserQuestion-09f285c2-483d-5c5b-b6fb-73a71f3a47b4"><rect height="107.79316520690918" width="103.3671875" y="0" x="0" class="er entityBox"></rect><text transform="translate(51.68359375,11.75)" style="dominant-baseline: middle; text-anchor: middle; font-size: 12px;" y="0" x="0" id="text-entity-UserQuestion-09f285c2-483d-5c5b-b6fb-73a71f3a47b4" class="er entityLabel">UserQuestion</text><rect height="21" width="38.64453125" y="23.5" x="0" class="er attributeBoxOdd"></rect><text transform="translate(5,34)" style="dominant-baseline: middle; font-size: 10.2px;" y="0" x="0" id="text-entity-UserQuestion-09f285c2-483d-5c5b-b6fb-73a71f3a47b4-attr-1-type" class="er entityLabel">int</text><rect height="21" width="64.72265625" y="23.5" x="38.64453125" class="er attributeBoxOdd"></rect><text transform="translate(43.64453125,34)" style="dominant-baseline: middle; font-size: 10.2px;" y="0" x="0" id="text-entity-UserQuestion-09f285c2-483d-5c5b-b6fb-73a71f3a47b4-attr-1-name" class="er entityLabel">ID</text><rect height="21" width="38.64453125" y="44.5" x="0" class="er attributeBoxEven"></rect><text transform="translate(5,55)" style="dominant-baseline: middle; font-size: 10.2px;" y="0" x="0" id="text-entity-UserQuestion-09f285c2-483d-5c5b-b6fb-73a71f3a47b4-attr-2-type" class="er entityLabel">int</text><rect height="21" width="64.72265625" y="44.5" x="38.64453125" class="er attributeBoxEven"></rect><text transform="translate(43.64453125,55)" style="dominant-baseline: middle; font-size: 10.2px;" y="0" x="0" id="text-entity-UserQuestion-09f285c2-483d-5c5b-b6fb-73a71f3a47b4-attr-2-name" class="er entityLabel">UserID</text><rect height="21.14658260345459" width="38.64453125" y="65.5" x="0" class="er attributeBoxOdd"></rect><text transform="translate(5,76.0732913017273)" style="dominant-baseline: middle; font-size: 10.2px;" y="0" x="0" id="text-entity-UserQuestion-09f285c2-483d-5c5b-b6fb-73a71f3a47b4-attr-3-type" class="er entityLabel">string</text><rect height="21.14658260345459" width="64.72265625" y="65.5" x="38.64453125" class="er attributeBoxOdd"></rect><text transform="translate(43.64453125,76.0732913017273)" style="dominant-baseline: middle; font-size: 10.2px;" y="0" x="0" id="text-entity-UserQuestion-09f285c2-483d-5c5b-b6fb-73a71f3a47b4-attr-3-name" class="er entityLabel">Title</text><rect height="21.14658260345459" width="38.64453125" y="86.64658260345459" x="0" class="er attributeBoxEven"></rect><text transform="translate(5,97.21987390518188)" style="dominant-baseline: middle; font-size: 10.2px;" y="0" x="0" id="text-entity-UserQuestion-09f285c2-483d-5c5b-b6fb-73a71f3a47b4-attr-4-type" class="er entityLabel">string</text><rect height="21.14658260345459" width="64.72265625" y="86.64658260345459" x="38.64453125" class="er attributeBoxEven"></rect><text transform="translate(43.64453125,97.21987390518188)" style="dominant-baseline: middle; font-size: 10.2px;" y="0" x="0" id="text-entity-UserQuestion-09f285c2-483d-5c5b-b6fb-73a71f3a47b4-attr-4-name" class="er entityLabel">Description</text></g><rect height="13.5" width="59.34375" y="263.4363708496094" x="77.42496490478516" class="er relationshipLabelBox"></rect><text style="text-anchor: middle; dominant-baseline: middle; font-size: 12px;" y="270.1863708496094" x="107.09683990478516" id="rel57" class="er relationshipLabel">FK: UserID</text><rect height="13.5" width="62.015625" y="505.3031005859375" x="64.3828125" class="er relationshipLabelBox"></rect><text style="text-anchor: middle; dominant-baseline: middle; font-size: 12px;" y="512.0531005859375" x="95.390625" id="rel58" class="er relationshipLabel">FK: HotelID</text><rect height="13.5" width="59.34375" y="268.3038024902344" x="258.7243957519531" class="er relationshipLabelBox"></rect><text style="text-anchor: middle; dominant-baseline: middle; font-size: 12px;" y="275.0538024902344" x="288.3962707519531" id="rel59" class="er relationshipLabel">FK: UserID</text></svg>