<!-- icon666.com - MILLIONS vector ICONS FREE --><svg id="Capa_1" enable-background="new 0 0 512 512" viewBox="0 0 512 512" xmlns="http://www.w3.org/2000/svg"><g><path d="m256 0c-112.409 0-203.959 91.45-204.079 203.859-.099 102.997 46.889 131.97 193.689 303.319 5.43 6.353 15.417 6.519 21.01-.04 146.326-172.094 193.459-199.23 193.459-303.059 0-112.529-91.549-204.079-204.079-204.079zm0 371.148c-90.73 0-164.539-73.81-164.539-164.539s73.809-164.549 164.539-164.549 164.539 73.82 164.539 164.549-73.809 164.539-164.539 164.539z"></path><path d="m256 72.06c-74.19 0-134.539 60.36-134.539 134.549 0 74.18 60.35 134.539 134.539 134.539s134.539-60.36 134.539-134.539c.001-74.19-60.349-134.549-134.539-134.549zm59.35 198.639c0 8.29-6.71 15-15 15-8.28 0-15-6.71-15-15v-51.29h-58.7v51.29c0 8.29-6.72 15-15 15-8.29 0-15-6.71-15-15v-128.19c0-8.28 6.71-15 15-15 8.28 0 15 6.72 15 15v46.9h58.7v-46.9c0-8.28 6.72-15 15-15 8.29 0 15 6.72 15 15z"></path></g></svg>