<!-- icon666.com - MILLIONS vector ICONS FREE --><svg version="1.1" id="Capa_1" xmlns="http://www.w3.org/2000/svg" xmlns:xlink="http://www.w3.org/1999/xlink" x="0px" y="0px" viewBox="0 0 183.381 183.381" style="enable-background:new 0 0 183.381 183.381;" xml:space="preserve"><path d="M180.881,159.681c-0.128,0-0.257-0.01-0.386-0.03l-59.075-9.23l-59.075,9.23c-0.004,0-0.009,0.001-0.014,0.002l0,0 c-0.002,0-0.003,0-0.007,0.001c-0.002,0.001-0.004,0.002-0.007,0.001c-0.002,0-0.007,0-0.007,0 c-0.001,0.001-0.003,0.003-0.006,0.001c-0.003,0.001-0.006,0.001-0.011,0.001c-0.002-0.001-0.004,0.001-0.006,0.001 c-0.003,0-0.004,0-0.006,0.001c-0.002,0-0.004,0.001-0.006,0c-0.002,0.001-0.004,0.001-0.007,0.001c0,0,0,0,0,0 c-0.078,0.01-0.156,0.016-0.234,0.018c-0.001,0.001-0.004,0-0.006,0c-0.001,0.001-0.004,0-0.006,0c0,0-0.001,0-0.001,0 c-0.002,0-0.003,0-0.005,0l0,0c-0.007,0-0.011-0.003-0.019,0c-0.001,0-0.001,0-0.006,0c-0.004,0-0.006-0.001-0.007,0 c-0.001,0-0.004,0-0.006,0c-0.001,0-0.004,0-0.007,0s-0.006,0-0.009,0h0l0,0h0c-0.003,0-0.008,0-0.008,0 c-0.004,0-0.006-0.001-0.007,0c-0.002,0-0.003,0-0.006,0c-0.002,0-0.004,0-0.007,0c-0.002,0-0.004,0-0.006,0 c-0.004-0.001-0.011,0-0.017,0c-0.001,0-0.004,0-0.006,0c-0.004,0.002-0.004,0-0.006,0c-0.004,0.001-0.004,0-0.006,0 c-0.004,0.001-0.005,0-0.007,0c0.003,0.003-0.016-0.001-0.024-0.001c0,0,0,0,0,0c-0.001,0-0.003,0-0.005,0c0,0-0.004,0-0.006,0 h-0.001c-0.002-0.001-0.005-0.001-0.006,0c-0.089-0.004-0.178-0.014-0.266-0.027l-59.459-9.29C0.897,150.17,0,149.122,0,147.89 V26.201c0-0.73,0.319-1.424,0.875-1.899c0.555-0.475,1.292-0.682,2.011-0.571l59.075,9.231l59.069-9.23 c0.119-0.019,0.239-0.029,0.361-0.031c0.001-0.001,0.003,0,0.006,0c0.001-0.001,0.003,0,0.006,0c0.003-0.001,0.004,0,0.006,0 c0.002,0,0.004,0,0.006,0s0.004-0.001,0.006,0l0,0c0.001-0.001,0.003,0,0.006,0c0.001-0.001,0.004,0,0.006,0s0.002-0.001,0.006,0 c0.003,0,0.004,0,0.006,0c0.002,0,0.003-0.001,0.006,0c0.001,0,0.003,0,0.005,0l0,0c0.12,0.002,0.239,0.012,0.357,0.031l59.453,9.29 c1.217,0.19,2.114,1.239,2.114,2.47v121.688c0,0.73-0.319,1.424-0.875,1.899C182.051,159.47,181.473,159.681,180.881,159.681z M64.46,130.736v23.523l54.46-8.509v-30.112c-1.75-0.288-3.333-0.871-4.763-1.75c-6.376-3.918-8.153-12.824-10.034-22.253 c-2.046-10.256-4.163-20.862-11.861-26.75c-11.804-9.026-22.626-5.282-26.732-3.253c-0.363,0.18-0.72,0.367-1.07,0.562v27.866 c0.104,0.094,0.208,0.188,0.312,0.282c9.276,8.39,20.82,18.832,9.319,32.469C71.025,126.445,67.76,128.998,64.46,130.736z M123.921,145.75l54.46,8.509V37.632l-54.46-8.51v81.557c1.035-0.145,2.145-0.383,3.332-0.714 c22.654-6.313,23.065-30.33,22.712-37.123c-0.705,0.146-1.435,0.223-2.182,0.223c-5.925,0-10.746-4.82-10.746-10.746 s4.82-10.746,10.746-10.746s10.746,4.82,10.746,10.746c0,3.251-1.451,6.169-3.739,8.141c0.002,0.015,0.004,0.03,0.006,0.046 c0.042,0.358,3.85,35.9-26.2,44.275c-1.653,0.461-3.21,0.773-4.674,0.936V145.75z M5,145.75l54.46,8.509v-21.482 c-10.966,3.275-21.415-0.988-25.322-2.925c-1.644,1.563-3.866,2.524-6.308,2.524c-5.05,0-9.158-4.108-9.158-9.158 s4.108-9.158,9.158-9.158s9.158,4.108,9.158,9.158c0,0.811-0.106,1.598-0.305,2.347c3.638,1.817,13.098,5.625,22.776,1.954V92.271 c-5.483-5.023-10.22-9.913-10.22-15.668c0-6.267,3.975-12.774,10.22-17.166V37.632L5,29.122V145.75z M27.831,119.06 c-2.293,0-4.158,1.865-4.158,4.158s1.865,4.158,4.158,4.158s4.158-1.865,4.158-4.158S30.124,119.06,27.831,119.06z M64.46,96.85 v28.052c1.985-1.354,3.938-3.097,5.809-5.315C77.316,111.231,73.189,105.08,64.46,96.85z M76.125,54.133 c6.632,0,13.306,2.293,19.174,6.781c9.196,7.032,11.604,19.098,13.728,29.743c1.662,8.329,3.231,16.196,7.749,18.972 c0.646,0.397,1.36,0.697,2.145,0.9V29.122l-54.46,8.51v18.981C68.211,54.953,72.162,54.133,76.125,54.133z M59.46,65.885 c-3.26,3.163-5.22,7.027-5.22,10.719c0,2.724,2.238,5.711,5.22,8.748V65.885z M147.783,56.573c-3.168,0-5.746,2.578-5.746,5.746 c0,3.168,2.578,5.746,5.746,5.746s5.746-2.578,5.746-5.746C153.529,59.151,150.951,56.573,147.783,56.573z"></path></svg>