<!-- icon666.com - MILLIONS vector ICONS FREE --><svg version="1.1" id="Layer_1" xmlns="http://www.w3.org/2000/svg" xmlns:xlink="http://www.w3.org/1999/xlink" x="0px" y="0px" viewBox="0 0 512 512" style="enable-background:new 0 0 512 512;" xml:space="preserve"><g><g><path d="M358.533,65.276h-34.54V22.91c0-12.653-10.258-22.91-22.91-22.91h-90.168c-12.653,0-22.91,10.258-22.91,22.91v42.366 h-34.54c-29.367,0-53.256,23.891-53.256,53.258v309.215c0,29.367,23.891,53.258,53.256,53.258h8.97v8.083 c0,12.653,10.258,22.91,22.91,22.91s22.91-10.258,22.91-22.91v-8.083h95.487v8.083c0,12.653,10.258,22.91,22.91,22.91 s22.91-10.258,22.91-22.91v-8.083h8.97c29.367,0,53.256-23.891,53.256-53.258V118.532C411.789,89.167,387.9,65.276,358.533,65.276 z M233.826,45.821h44.347v19.456h-44.347V45.821z M365.97,427.749c-0.002,4.099-3.336,7.435-7.437,7.435H153.465 c-4.101,0-7.435-3.336-7.435-7.437V173.953h219.94V427.749z M365.97,128.132H146.03v-9.598c-0.002-4.101,3.334-7.437,7.435-7.437 h205.069c4.101,0,7.435,3.336,7.435,7.437V128.132z"></path></g></g></svg>